<?xml version="1.0" encoding="utf-8"?>
<svg version="1.1" xmlns:xlink="http://www.w3.org/1999/xlink" width="16px" height="18px" xmlns="http://www.w3.org/2000/svg">
  <g transform="matrix(1 0 0 1 -2000 -448 )">
    <path d="M 5.71590909090909 6.85546875  C 5.78409090909091 6.92578125  5.81818181818182 7.015625  5.81818181818182 7.125  L 5.81818181818182 13.875  C 5.81818181818182 13.984375  5.78409090909091 14.07421875  5.71590909090909 14.14453125  C 5.64772727272727 14.21484375  5.56060606060606 14.25  5.45454545454545 14.25  L 4.72727272727273 14.25  C 4.62121212121212 14.25  4.53409090909091 14.21484375  4.46590909090909 14.14453125  C 4.39772727272727 14.07421875  4.36363636363636 13.984375  4.36363636363636 13.875  L 4.36363636363636 7.125  C 4.36363636363636 7.015625  4.39772727272727 6.92578125  4.46590909090909 6.85546875  C 4.53409090909091 6.78515625  4.62121212121212 6.75  4.72727272727273 6.75  L 5.45454545454545 6.75  C 5.56060606060606 6.75  5.64772727272727 6.78515625  5.71590909090909 6.85546875  Z M 8.625 6.85546875  C 8.69318181818182 6.92578125  8.72727272727273 7.015625  8.72727272727273 7.125  L 8.72727272727273 13.875  C 8.72727272727273 13.984375  8.69318181818182 14.07421875  8.625 14.14453125  C 8.55681818181818 14.21484375  8.46969696969697 14.25  8.36363636363636 14.25  L 7.63636363636364 14.25  C 7.53030303030303 14.25  7.44318181818182 14.21484375  7.375 14.14453125  C 7.30681818181818 14.07421875  7.27272727272727 13.984375  7.27272727272727 13.875  L 7.27272727272727 7.125  C 7.27272727272727 7.015625  7.30681818181818 6.92578125  7.375 6.85546875  C 7.44318181818182 6.78515625  7.53030303030303 6.75  7.63636363636364 6.75  L 8.36363636363636 6.75  C 8.46969696969697 6.75  8.55681818181818 6.78515625  8.625 6.85546875  Z M 11.5340909090909 6.85546875  C 11.6022727272727 6.92578125  11.6363636363636 7.015625  11.6363636363636 7.125  L 11.6363636363636 13.875  C 11.6363636363636 13.984375  11.6022727272727 14.07421875  11.5340909090909 14.14453125  C 11.4659090909091 14.21484375  11.3787878787879 14.25  11.2727272727273 14.25  L 10.5454545454545 14.25  C 10.4393939393939 14.25  10.3522727272727 14.21484375  10.2840909090909 14.14453125  C 10.2159090909091 14.07421875  10.1818181818182 13.984375  10.1818181818182 13.875  L 10.1818181818182 7.125  C 10.1818181818182 7.015625  10.2159090909091 6.92578125  10.2840909090909 6.85546875  C 10.3522727272727 6.78515625  10.4393939393939 6.75  10.5454545454545 6.75  L 11.2727272727273 6.75  C 11.3787878787879 6.75  11.4659090909091 6.78515625  11.5340909090909 6.85546875  Z M 13.0113636363636 16.083984375  C 13.0643939393939 15.939453125  13.0909090909091 15.78125  13 15.609375  L 13 4.5  L 3 4.5  L 3 15.609375  C 2.90909090909091 15.78125  2.93560606060606 15.939453125  2.98863636363636 16.083984375  C 3.04166666666667 16.228515625  3.09659090909091 16.333984375  3.15340909090909 16.400390625  C 3.21022727272727 16.466796875  3.25 16.5  3.27272727272727 16.5  L 12.7272727272727 16.5  C 12.75 16.5  12.7897727272727 16.466796875  12.8465909090909 16.400390625  C 12.9034090909091 16.333984375  12.9583333333333 16.228515625  13.0113636363636 16.083984375  Z M 6.01136363636364 1.62890625  L 5.45454545454545 3  L 10.5454545454545 3  L 10 1.62890625  C 9.9469696969697 1.55859375  9.88257575757576 1.515625  9.80681818181818 1.5  L 6.20454545454545 1.5  C 6.12878787878788 1.515625  6.06439393939394 1.55859375  6.01136363636364 1.62890625  Z M 15.8977272727273 3.10546875  C 15.9659090909091 3.17578125  16 3.265625  16 3.375  L 16 4.125  C 16 4.234375  15.9659090909091 4.32421875  15.8977272727273 4.39453125  C 15.8295454545455 4.46484375  15.7424242424242 4.5  15.6363636363636 4.5  L 14.5454545454545 4.5  L 14.5454545454545 15.609375  C 14.5454545454545 16.2578125  14.3674242424242 16.818359375  14.0113636363636 17.291015625  C 13.655303030303 17.763671875  13.2272727272727 18  12.7272727272727 18  L 3.27272727272727 18  C 2.77272727272727 18  2.34469696969697 17.771484375  1.98863636363636 17.314453125  C 1.63257575757576 16.857421875  1.45454545454545 16.3046875  1.45454545454545 15.65625  L 1.45454545454545 4.5  L 0.363636363636364 4.5  C 0.257575757575758 4.5  0.170454545454545 4.46484375  0.102272727272727 4.39453125  C 0.0340909090909091 4.32421875  0 4.234375  0 4.125  L 0 3.375  C 0 3.265625  0.0340909090909091 3.17578125  0.102272727272727 3.10546875  C 0.170454545454545 3.03515625  0.257575757575758 3  0.363636363636364 3  L 3.875 3  L 4.67045454545455 1.04296875  C 4.78409090909091 0.753906249999998  4.98863636363636 0.507812499999998  5.28409090909091 0.304687500000001  C 5.57954545454546 0.101562499999999  5.87878787878788 0  6.18181818181818 0  L 9.81818181818182 0  C 10.1212121212121 0  10.4204545454545 0.101562499999999  10.7159090909091 0.304687500000001  C 11.0113636363636 0.507812499999998  11.2159090909091 0.753906249999998  11.3295454545455 1.04296875  L 12.125 3  L 15.6363636363636 3  C 15.7424242424242 3  15.8295454545455 3.03515625  15.8977272727273 3.10546875  Z " fill-rule="nonzero" fill="#2cbdbd" stroke="none" transform="matrix(1 0 0 1 2000 448 )" />
  </g>
</svg>