<?xml version="1.0" encoding="utf-8"?>
<svg version="1.1" xmlns:xlink="http://www.w3.org/1999/xlink" width="15px" height="17px" xmlns="http://www.w3.org/2000/svg">
  <g transform="matrix(1 0 0 1 -234 3120 )">
    <path d="M 11.2890625 0.645089285714286  L 14.3359375 3.60491071428571  C 14.5182291666667 3.78199404761905  14.6744791666667 4.02232142857143  14.8046875 4.32589285714286  C 14.9348958333333 4.62946428571429  15 4.90773809523809  15 5.16071428571429  L 15 16.0892857142857  C 15 16.3422619047619  14.9088541666667 16.5572916666667  14.7265625 16.734375  C 14.5442708333333 16.9114583333333  14.3229166666667 17  14.0625 17  L 0.9375 17  C 0.677083333333333 17  0.455729166666667 16.9114583333333  0.2734375 16.734375  C 0.0911458333333333 16.5572916666667  0 16.3422619047619  0 16.0892857142857  L 0 0.910714285714286  C 0 0.657738095238095  0.0911458333333333 0.442708333333333  0.2734375 0.265625  C 0.455729166666667 0.0885416666666673  0.677083333333333 0  0.9375 0  L 9.6875 0  C 9.94791666666667 0  10.234375 0.0632440476190483  10.546875 0.189732142857143  C 10.859375 0.316220238095238  11.1067708333333 0.468005952380952  11.2890625 0.645089285714286  Z M 10.400390625 1.49888392857143  C 10.322265625 1.42299107142857  10.1888020833333 1.35342261904762  10 1.29017857142857  L 10 4.85714285714286  L 13.671875 4.85714285714286  C 13.6067708333333 4.67373511904762  13.53515625 4.54408482142857  13.45703125 4.46819196428571  L 10.400390625 1.49888392857143  Z M 1.25 15.7857142857143  L 13.75 15.7857142857143  L 13.75 6.07142857142857  L 9.6875 6.07142857142857  C 9.42708333333333 6.07142857142857  9.20572916666667 5.9828869047619  9.0234375 5.80580357142857  C 8.84114583333333 5.62872023809524  8.75 5.41369047619047  8.75 5.16071428571429  L 8.75 1.21428571428571  L 1.25 1.21428571428571  L 1.25 15.7857142857143  Z M 7.3046875 7.90234375  C 7.66276041666667 8.93954613095238  8.13802083333333 9.69215029761905  8.73046875 10.16015625  C 8.9453125 10.3245907738095  9.21875 10.5016741071429  9.55078125 10.69140625  C 9.93489583333333 10.6471354166667  10.3157552083333 10.625  10.693359375 10.625  C 11.650390625 10.625  12.2265625 10.7799479166667  12.421875 11.08984375  C 12.5260416666667 11.2289806547619  12.5325520833333 11.3934151785714  12.44140625 11.5831473214286  C 12.44140625 11.5894717261905  12.4381510416667 11.5957961309524  12.431640625 11.6021205357143  L 12.412109375 11.62109375  L 12.412109375 11.6305803571429  C 12.373046875 11.8709077380952  12.1419270833333 11.9910714285714  11.71875 11.9910714285714  C 11.40625 11.9910714285714  11.0319010416667 11.9278273809524  10.595703125 11.8013392857143  C 10.1595052083333 11.6748511904762  9.736328125 11.5072544642857  9.326171875 11.2985491071429  C 7.88736979166667 11.4503348214286  6.611328125 11.7127976190476  5.498046875 12.0859375  C 4.501953125 13.742931547619  3.71419270833333 14.5714285714286  3.134765625 14.5714285714286  C 3.037109375 14.5714285714286  2.94596354166667 14.5492931547619  2.861328125 14.5050223214286  L 2.626953125 14.3911830357143  C 2.62044270833333 14.3848586309524  2.60091145833333 14.3690476190476  2.568359375 14.34375  C 2.50325520833333 14.280505952381  2.48372395833333 14.1666666666667  2.509765625 14.0022321428571  C 2.568359375 13.749255952381  2.75065104166667 13.4599144345238  3.056640625 13.1342075892857  C 3.36263020833333 12.8085007440476  3.79231770833333 12.5033482142857  4.345703125 12.21875  C 4.43684895833333 12.1618303571429  4.51171875 12.1808035714286  4.5703125 12.2756696428571  C 4.58333333333333 12.288318452381  4.58984375 12.3009672619048  4.58984375 12.3136160714286  C 4.92838541666667 11.7760416666667  5.27669270833333 11.153087797619  5.634765625 10.4447544642857  C 6.07747395833333 9.58463541666667  6.416015625 8.75613839285714  6.650390625 7.95926339285714  C 6.494140625 7.44066220238095  6.39485677083333 6.93629092261905  6.3525390625 6.44614955357143  C 6.31022135416667 5.95600818452381  6.33138020833333 5.55282738095238  6.416015625 5.23660714285714  C 6.48763020833333 4.98363095238095  6.62434895833333 4.85714285714286  6.826171875 4.85714285714286  L 7.03125 4.85714285714286  L 7.041015625 4.85714285714286  C 7.19075520833333 4.85714285714286  7.3046875 4.90457589285714  7.3828125 4.99944196428571  C 7.5 5.13225446428571  7.529296875 5.34728422619047  7.470703125 5.64453125  C 7.45768229166667 5.68247767857143  7.44466145833333 5.70777529761905  7.431640625 5.72042410714286  C 7.43815104166667 5.73939732142857  7.44140625 5.76469494047619  7.44140625 5.79631696428571  L 7.44140625 6.08091517857143  C 7.42838541666667 6.85881696428571  7.3828125 7.46595982142857  7.3046875 7.90234375  Z M 3.5888671875 13.3571428571429  C 3.35123697916667 13.6354166666667  3.19010416666667 13.8694196428571  3.10546875 14.0591517857143  C 3.44401041666667 13.9073660714286  3.88997395833333 13.4077380952381  4.443359375 12.5602678571429  C 4.111328125 12.813244047619  3.82649739583333 13.078869047619  3.5888671875 13.3571428571429  Z M 6.9921875 5.3125  L 6.9921875 5.33147321428571  C 6.89453125 5.59709821428571  6.88802083333333 6.01450892857143  6.97265625 6.58370535714286  C 6.97916666666667 6.53943452380952  7.001953125 6.40029761904762  7.041015625 6.16629464285714  C 7.041015625 6.14732142857143  7.06380208333333 6.01134672619047  7.109375 5.75837053571429  C 7.11588541666667 5.73307291666667  7.12890625 5.70777529761905  7.1484375 5.68247767857143  C 7.14192708333333 5.67615327380952  7.138671875 5.66982886904762  7.138671875 5.66350446428571  C 7.13216145833333 5.6508556547619  7.12890625 5.64136904761905  7.12890625 5.63504464285714  C 7.12239583333333 5.49590773809524  7.080078125 5.38206845238095  7.001953125 5.29352678571429  C 7.001953125 5.29985119047619  6.99869791666667 5.30617559523809  6.9921875 5.3125  Z M 6.220703125 10.8147321428571  C 6.025390625 11.1688988095238  5.87890625 11.4313616071429  5.78125 11.6021205357143  C 6.66015625 11.2606026785714  7.58463541666667 11.0044642857143  8.5546875 10.8337053571429  C 8.54166666666667 10.827380952381  8.49934895833333 10.7973400297619  8.427734375 10.7435825892857  C 8.35611979166667 10.6898251488095  8.30403645833334 10.6471354166667  8.271484375 10.6155133928571  C 7.77669270833334 10.1917782738095  7.36328125 9.6352306547619  7.03125 8.94587053571429  C 6.85546875 9.48976934523809  6.58528645833333 10.1127232142857  6.220703125 10.8147321428571  Z M 12.109375 11.4787946428571  C 12.109375 11.4724702380952  12.1028645833333 11.4629836309524  12.08984375 11.4503348214286  C 11.93359375 11.2985491071429  11.4778645833333 11.22265625  10.72265625 11.22265625  C 11.2174479166667 11.3997395833333  11.62109375 11.48828125  11.93359375 11.48828125  C 12.0247395833333 11.48828125  12.0833333333333 11.485119047619  12.109375 11.4787946428571  Z " fill-rule="nonzero" fill="#2cbdbd" stroke="none" transform="matrix(1 0 0 1 234 -3120 )" />
  </g>
</svg>