<?xml version="1.0" encoding="utf-8"?>
<svg version="1.1" xmlns:xlink="http://www.w3.org/1999/xlink" width="31px" height="19px" xmlns="http://www.w3.org/2000/svg">
  <g transform="matrix(1 0 0 1 -1893 -360 )">
    <path d="M 2.21428571428571 9.5  C 4.14025297619048 11.9315476190476  6.60249255952381 13.6986607142857  9.60100446428572 14.8013392857143  L 10.9503348214286 12.8080357142857  C 9.94698660714286 12.2142857142857  9.16276041666667 11.4650297619048  8.59765625 10.5602678571429  C 8.03255208333333 9.65550595238095  7.75 8.69890873015873  7.75 7.69047619047619  C 7.75 6.55009920634921  8.10174851190476 5.48983134920635  8.80524553571428 4.50967261904762  C 6.16424851190476 5.61235119047619  3.96726190476191 7.27579365079365  2.21428571428571 9.5  Z M 16.0881696428571 4.55208333333333  C 16.2496279761905 4.42013888888889  16.3303571428571 4.25992063492063  16.3303571428571 4.07142857142857  C 16.3303571428571 3.88293650793651  16.2496279761905 3.72271825396825  16.0881696428571 3.59077380952381  C 15.9267113095238 3.45882936507936  15.7306547619048 3.39285714285714  15.5 3.39285714285714  C 14.0584077380952 3.39285714285714  12.821521577381 3.81460813492063  11.7893415178571 4.65811011904762  C 10.7571614583333 5.5016121031746  10.2410714285714 6.51240079365079  10.2410714285714 7.69047619047619  C 10.2410714285714 7.87896825396825  10.3218005952381 8.03918650793651  10.4832589285714 8.17113095238095  C 10.6447172619048 8.3030753968254  10.8407738095238 8.36904761904762  11.0714285714286 8.36904761904762  C 11.3020833333333 8.36904761904762  11.4981398809524 8.3030753968254  11.6595982142857 8.17113095238095  C 11.821056547619 8.03918650793651  11.9017857142857 7.87896825396825  11.9017857142857 7.69047619047619  C 11.9017857142857 6.87996031746032  12.2535342261905 6.18725198412698  12.95703125 5.61235119047619  C 13.6605282738095 5.03745039682539  14.5081845238095 4.75  15.5 4.75  C 15.7306547619048 4.75  15.9267113095238 4.68402777777778  16.0881696428571 4.55208333333333  Z M 22.3331473214286 0.989583333333334  C 22.5176711309524 1.08382936507936  22.6099330357143 1.21106150793651  22.6099330357143 1.37127976190476  C 22.6099330357143 1.43725198412698  22.6041666666667 1.4796626984127  22.5926339285714 1.49851190476191  C 21.3701636904762 3.27976190476191  19.5479910714286 5.95163690476191  17.1261160714286 9.51413690476191  C 14.7042410714286 13.0766369047619  12.8878348214286 15.7437996031746  11.6768973214286 17.515625  L 10.8292410714286 18.7738095238095  C 10.7139136904762 18.9246031746032  10.5524553571429 19  10.3448660714286 19  C 10.2064732142857 19  9.43377976190476 18.6701388888889  8.02678571428572 18.0104166666667  C 7.84226190476191 17.9161706349206  7.75 17.7842261904762  7.75 17.6145833333333  C 7.75 17.5014880952381  8.00372023809524 17.0915178571429  8.51116071428572 16.3846726190476  C 6.86197916666667 15.7720734126984  5.34254092261905 14.9568452380952  3.95284598214286 13.9389880952381  C 2.56315104166667 12.921130952381  1.3608630952381 11.7666170634921  0.345982142857143 10.4754464285714  C 0.115327380952381 10.1832837301587  0 9.85813492063492  0 9.5  C 0 9.14186507936508  0.115327380952381 8.81671626984127  0.345982142857143 8.52455357142857  C 2.11049107142857 6.30977182539683  4.30171130952381 4.56150793650794  6.91964285714286 3.27976190476191  C 9.53757440476191 1.99801587301587  12.397693452381 1.35714285714286  15.5 1.35714285714286  C 16.5264136904762 1.35714285714286  17.5643601190476 1.43725198412698  18.6138392857143 1.59747023809524  L 19.5479910714286 0.226190476190475  C 19.663318452381 0.0753968253968251  19.8247767857143 0  20.0323660714286 0  C 20.0900297619048 0  20.1938244047619 0.0282738095238094  20.34375 0.0848214285714283  C 20.4936755952381 0.141369047619047  20.6724330357143 0.21440972222222  20.8800223214286 0.303943452380953  C 21.0876116071429 0.393477182539682  21.2779017857143 0.480654761904762  21.4508928571429 0.565476190476191  C 21.6238839285714 0.650297619047619  21.8055245535714 0.737475198412695  21.9958147321429 0.827008928571428  C 22.1861049107143 0.916542658730157  22.2985491071429 0.970734126984126  22.3331473214286 0.989583333333334  Z M 23.1116071428571 6.50297619047619  C 23.2038690476191 6.92708333333333  23.25 7.32291666666667  23.25 7.69047619047619  C 23.25 9.00049603174603  22.7944568452381 10.195064484127  21.8833705357143 11.274181547619  C 20.9722842261905 12.3532986111111  19.7671130952381 13.1284722222222  18.2678571428571 13.5997023809524  L 23.1116071428571 6.50297619047619  Z M 30.6540178571429 8.52455357142857  C 30.8846726190476 8.84499007936508  31 9.17013888888889  31 9.5  C 31 9.82986111111111  30.8846726190476 10.1550099206349  30.6540178571429 10.4754464285714  C 30.2042410714286 11.078621031746  29.5757068452381 11.7619047619048  28.7684151785714 12.5252976190476  C 27.0385044642857 14.1463293650794  25.0346912202381 15.4045138888889  22.7569754464286 16.2998511904762  C 20.4792596726191 17.1951884920635  18.0602678571429 17.6428571428571  15.5 17.6428571428571  L 16.7801339285714 15.7767857142857  C 19.2250744047619 15.6071428571429  21.4883742559524 14.9615575396825  23.5700334821429 13.8400297619048  C 25.6516927083333 12.718501984127  27.3902529761905 11.2718253968254  28.7857142857143 9.5  C 27.4594494047619 7.81299603174603  25.8333333333333 6.42757936507937  23.9073660714286 5.34375  L 24.9972098214286 3.76041666666667  C 26.0928199404762 4.36359126984127  27.1451822916667 5.08457341269841  28.154296875 5.92336309523809  C 29.1634114583333 6.76215277777778  29.9966517857143 7.62921626984127  30.6540178571429 8.52455357142857  Z " fill-rule="nonzero" fill="#333333" stroke="none" transform="matrix(1 0 0 1 1893 360 )" />
  </g>
</svg>