<?xml version="1.0" encoding="utf-8"?>
<svg version="1.1" xmlns:xlink="http://www.w3.org/1999/xlink" width="31px" height="17px" xmlns="http://www.w3.org/2000/svg">
  <g transform="matrix(1 0 0 1 -2115 -362 )">
    <path d="M 23.0164620535714 13.3181423611111  C 25.3287760416667 12.1228298611111  27.2518601190476 10.5167824074074  28.7857142857143 8.5  C 27.0327380952381 6.17824074074074  24.8357514880952 4.44184027777778  22.1947544642857 3.29079861111111  C 22.8982514880952 4.31394675925926  23.25 5.42071759259259  23.25 6.61111111111111  C 23.25 8.43113425925926  22.4917224702381 9.98799189814815  20.9751674107143 11.2816840277778  C 19.4586123511905 12.5753761574074  17.633556547619 13.2222222222222  15.5 13.2222222222222  C 13.366443452381 13.2222222222222  11.5413876488095 12.5753761574074  10.0248325892857 11.2816840277778  C 8.50827752976191 9.98799189814815  7.75 8.43113425925926  7.75 6.61111111111111  C 7.75 5.42071759259259  8.10174851190476 4.31394675925926  8.80524553571428 3.29079861111111  C 6.16424851190476 4.44184027777778  3.96726190476191 6.17824074074074  2.21428571428571 8.5  C 3.74813988095238 10.5167824074074  5.67122395833333 12.1228298611111  7.98353794642857 13.3181423611111  C 10.2958519345238 14.5134548611111  12.8013392857143 15.1111111111111  15.5 15.1111111111111  C 18.1986607142857 15.1111111111111  20.7041480654762 14.5134548611111  23.0164620535714 13.3181423611111  Z M 16.0881696428571 3.33506944444444  C 16.2496279761905 3.19733796296296  16.3303571428571 3.03009259259259  16.3303571428571 2.83333333333333  C 16.3303571428571 2.63657407407407  16.2496279761905 2.4693287037037  16.0881696428571 2.33159722222222  C 15.9267113095238 2.19386574074074  15.7306547619048 2.125  15.5 2.125  C 14.0584077380952 2.125  12.821521577381 2.56524884259259  11.7893415178571 3.44574652777778  C 10.7571614583333 4.32624421296296  10.2410714285714 5.38136574074074  10.2410714285714 6.61111111111111  C 10.2410714285714 6.80787037037037  10.3218005952381 6.97511574074074  10.4832589285714 7.11284722222222  C 10.6447172619048 7.2505787037037  10.8407738095238 7.31944444444444  11.0714285714286 7.31944444444444  C 11.3020833333333 7.31944444444444  11.4981398809524 7.2505787037037  11.6595982142857 7.11284722222222  C 11.821056547619 6.97511574074074  11.9017857142857 6.80787037037037  11.9017857142857 6.61111111111111  C 11.9017857142857 5.7650462962963  12.2535342261905 5.04195601851852  12.95703125 4.44184027777778  C 13.6605282738095 3.84172453703704  14.5081845238095 3.54166666666667  15.5 3.54166666666667  C 15.7306547619048 3.54166666666667  15.9267113095238 3.47280092592592  16.0881696428571 3.33506944444444  Z M 30.6540178571429 7.48177083333333  C 30.8846726190476 7.82609953703704  31 8.16550925925926  31 8.5  C 31 8.83449074074074  30.8846726190476 9.17390046296296  30.6540178571429 9.51822916666667  C 29.0394345238095 11.7809606481481  26.868396577381 13.5936053240741  24.1409040178571 14.9561631944444  C 21.4134114583333 16.3187210648148  18.5331101190476 17  15.5 17  C 12.4668898809524 17  9.58658854166667 16.3162615740741  6.85909598214286 14.9487847222222  C 4.13160342261905 13.5813078703704  1.96056547619048 11.7711226851852  0.345982142857143 9.51822916666667  C 0.115327380952381 9.17390046296296  0 8.83449074074074  0 8.5  C 0 8.16550925925926  0.115327380952381 7.82609953703704  0.345982142857143 7.48177083333333  C 1.96056547619048 5.22887731481481  4.13160342261905 3.41869212962963  6.85909598214286 2.05121527777778  C 9.58658854166667 0.683738425925925  12.4668898809524 0  15.5 0  C 18.5331101190476 0  21.4134114583333 0.683738425925925  24.1409040178571 2.05121527777778  C 26.868396577381 3.41869212962963  29.0394345238095 5.22887731481481  30.6540178571429 7.48177083333333  Z " fill-rule="nonzero" fill="#333333" stroke="none" transform="matrix(1 0 0 1 2115 362 )" />
  </g>
</svg>