<svg xmlns="http://www.w3.org/2000/svg" width="16" height="16" viewBox="0 0 16 16">
  <path id="icon_copy_nor" d="M78.455,64.152a1.443,1.443,0,0,1,1.446,1.44V74.56A1.443,1.443,0,0,1,78.455,76H69.446A1.443,1.443,0,0,1,68,74.56V65.592a1.443,1.443,0,0,1,1.446-1.44h9.009Zm-4.494,2.633a.536.536,0,0,0-.537.526v2.241H71.169a.535.535,0,0,0,0,1.069h2.251v2.224a.537.537,0,0,0,1.074,0v-2.22h2.234a.535.535,0,0,0,0-1.069H74.5V67.307A.536.536,0,0,0,73.961,66.785ZM82.015,60A1.981,1.981,0,0,1,84,61.944v6.621a1.981,1.981,0,0,1-1.953,1.976h-.754a.535.535,0,0,1-.013-1.07h.734a.908.908,0,0,0,.91-.891v-6.6a.908.908,0,0,0-.895-.906H75.4a.908.908,0,0,0-.91.891v.861a.538.538,0,0,1-1.075.013v-.859A1.981,1.981,0,0,1,75.364,60h6.651Z" transform="translate(-68 -60)" fill="#4abfcd"/>
</svg>
