<?xml version="1.0" standalone="no"?><!DOCTYPE svg PUBLIC "-//W3C//DTD SVG 1.1//EN" "http://www.w3.org/Graphics/SVG/1.1/DTD/svg11.dtd"><svg class="icon" width="200px" height="200.00px" viewBox="0 0 1024 1024" version="1.1" xmlns="http://www.w3.org/2000/svg"><path fill="#1296db" d="M64.366367 127.978575v767.345824a63.566501 63.566501 0 0 0 63.497941 63.497941h767.311544a63.555074 63.555074 0 0 0 63.497941-63.497941V127.978575a63.555074 63.555074 0 0 0-63.497941-63.497941H127.864308A63.555074 63.555074 0 0 0 64.366367 127.978575zM0.47992 127.978575A127.487229 127.487229 0 0 1 127.864308 0.605613h767.311544A127.475802 127.475802 0 0 1 1022.583094 127.978575v767.345824a127.441522 127.441522 0 0 1-127.407242 127.384389H127.864308A127.452949 127.452949 0 0 1 0.468493 895.324399z m0 0"  /><path fill="#1296db" d="M263.898678 543.943224c-23.241823 0-42.09581-14.29475-42.09581-31.994644s18.853986-31.926084 42.09581-31.926084h503.984199c23.25325 0 42.09581 14.29475 42.09581 31.926084s-18.84256 31.994644-42.09581 31.994644z"  /><path fill="#1296db" d="M547.805434 763.997813c0 23.241823-14.29475 42.084383-31.93751 42.084383s-31.994644-18.84256-31.994644-42.084383V260.002187c0-23.241823 14.29475-42.084383 31.994644-42.084383s31.93751 18.84256 31.93751 42.084383z"  /></svg>