<?xml version="1.0" standalone="no"?><!DOCTYPE svg PUBLIC "-//W3C//DTD SVG 1.1//EN" "http://www.w3.org/Graphics/SVG/1.1/DTD/svg11.dtd"><svg class="icon" width="200px" height="200.00px" viewBox="0 0 1024 1024" version="1.1" xmlns="http://www.w3.org/2000/svg"><path fill="#1296db" d="M861.884632 49.098105H137.754947C76.584421 49.098105 26.947368 98.681263 26.947368 159.959579v724.075789c0 61.224421 49.583158 110.807579 110.807579 110.807579h724.129685c61.170526 0 110.807579-49.583158 110.807579-110.807579V159.959579c0-61.278316-49.583158-110.861474-110.807579-110.861474m0 59.122527c28.510316 0 51.685053 23.174737 51.685052 51.738947v724.075789a51.738947 51.738947 0 0 1-51.738947 51.631158H137.808842a51.738947 51.738947 0 0 1-51.738947-51.631158V159.959579c0-28.564211 23.228632-51.738947 51.738947-51.738947h724.129684"  /><path fill="#1296db" d="M706.721684 492.436211H292.971789a29.534316 29.534316 0 1 0 0 59.068631h413.749895a29.480421 29.480421 0 1 0 0-59.068631"  /></svg>