<?xml version="1.0" encoding="utf-8"?>
<svg version="1.1" xmlns:xlink="http://www.w3.org/1999/xlink" width="15px" height="15px" xmlns="http://www.w3.org/2000/svg">
  <g transform="matrix(1 0 0 1 -3021 -578 )">
    <path d="M 14.9573863636364 7.5  C 14.9573863636364 3.38179154829546  11.6182084517045 0.0426136363636364  7.5 0.0426136363636364  C 3.38179154829546 0.0426136363636364  0.0426136363636364 3.38179154829546  0.0426136363636364 7.5  C 0.0426136363636364 11.6182084517045  3.38179154829546 14.9573863636364  7.5 14.9573863636364  C 11.6182084517045 14.9573863636364  14.9573863636364 11.6182084517045  14.9573863636364 7.5  Z M 12.1475497159091 4.48208895596591  C 12.4738103693182 4.81001420454546  12.4738103693182 5.34268465909091  12.1475497159091 5.6689453125  L 6.92904385653409 10.7010165127841  C 6.859130859375 10.7709295099432  6.78089488636364 10.8241965553977  6.69766512784091 10.8658114346591  C 6.36973987926136 11.0988547585227  5.91197620738636 11.070556640625  5.61734286221591 10.7759232954545  L 3.37513316761364 8.53371360085227  C 3.04720791903409 8.20745294744318  3.04720791903409 7.67478249289773  3.37513316761364 7.34685724431818  C 3.70305841619318 7.01893199573864  4.23406427556818 7.01893199573864  4.56198952414773 7.34685724431818  L 6.24489524147727 9.02976296164773  L 10.960693359375 4.48208895596591  C 11.2886186079545 4.15416370738636  11.8196244673295 4.15416370738636  12.1475497159091 4.48208895596591  Z " fill-rule="nonzero" fill="#09bb07" stroke="none" transform="matrix(1 0 0 1 3021 578 )" />
  </g>
</svg>