<?xml version="1.0" encoding="utf-8"?>
<svg version="1.1" xmlns:xlink="http://www.w3.org/1999/xlink" width="24px" height="21px" xmlns="http://www.w3.org/2000/svg">
  <g transform="matrix(1 0 0 1 -1021 -265 )">
    <path d="M 5.53846153846154 15.75  L 5.53846153846154 19  L 18.4615384615385 19  L 18.4615384615385 15.75  L 5.53846153846154 15.75  Z M 5.53846153846154 1.75  L 5.53846153846154 10.5  L 18.4615384615385 10.5  L 18.4615384615385 5.25  L 16.1538461538462 5.25  C 15.7692307692308 5.25  15.4423076923077 5.12239583333333  15.1730769230769 4.8671875  C 14.9038461538462 4.61197916666667  14.7692307692308 4.30208333333333  14.7692307692308 3.9375  L 14.7692307692308 1.75  L 5.53846153846154 1.75  Z M 21.8798076923077 11.990234375  C 22.0625 11.8170572916667  22.1538461538462 11.6119791666667  22.1538461538462 11.375  C 22.1538461538462 11.1380208333333  22.0625 10.9329427083333  21.8798076923077 10.759765625  C 21.6971153846154 10.5865885416667  21.4807692307692 10.5  21.2307692307692 10.5  C 20.9807692307692 10.5  20.7644230769231 10.5865885416667  20.5817307692308 10.759765625  C 20.3990384615385 10.9329427083333  20.3076923076923 11.1380208333333  20.3076923076923 11.375  C 20.3076923076923 11.6119791666667  20.3990384615385 11.8170572916667  20.5817307692308 11.990234375  C 20.7644230769231 12.1634114583333  20.9807692307692 12.25  21.2307692307692 12.25  C 21.4807692307692 12.25  21.6971153846154 12.1634114583333  21.8798076923077 11.990234375  Z M 23.1850961538462 9.5224609375  C 23.7283653846154 10.0374348958333  24 10.6549479166667  24 11.375  L 24 17.0625  C 24 17.1809895833333  23.9543269230769 17.2835286458333  23.8629807692308 17.3701171875  C 23.7716346153846 17.4567057291667  23.6634615384615 17.5  23.5384615384615 17.5  L 20.3076923076923 17.5  L 20.3076923076923 19.6875  C 20.3076923076923 20.0520833333333  20.1730769230769 20.3619791666667  19.9038461538462 20.6171875  C 19.6346153846154 20.8723958333333  19.3076923076923 21  18.9230769230769 21  L 5.07692307692308 21  C 4.69230769230769 21  4.36538461538462 20.8723958333333  4.09615384615385 20.6171875  C 3.82692307692308 20.3619791666667  3.69230769230769 20.0520833333333  3.69230769230769 19.6875  L 3.69230769230769 17.5  L 0.461538461538462 17.5  C 0.336538461538462 17.5  0.228365384615385 17.4567057291667  0.137019230769231 17.3701171875  C 0.0456730769230769 17.2835286458333  0 17.1809895833333  0 17.0625  L 0 11.375  C 0 10.6549479166667  0.271634615384615 10.0374348958333  0.814903846153846 9.5224609375  C 1.35817307692308 9.00748697916667  2.00961538461539 8.75  2.76923076923077 8.75  L 3.69230769230769 8.75  L 3.69230769230769 1.3125  C 3.69230769230769 0.947916666666666  3.82692307692308 0.63802083333333  4.09615384615385 0.382812499999999  C 4.36538461538462 0.127604166666666  4.69230769230769 0  5.07692307692308 0  L 14.7692307692308 0  C 15.1538461538462 0  15.5769230769231 0.0911458333333313  16.0384615384615 0.273437500000001  C 16.5 0.455729166666666  16.8653846153846 0.674479166666665  17.1346153846154 0.929687500000001  L 19.3269230769231 3.0078125  C 19.5961538461538 3.26302083333333  19.8269230769231 3.609375  20.0192307692308 4.046875  C 20.2115384615385 4.484375  20.3076923076923 4.88541666666667  20.3076923076923 5.25  L 20.3076923076923 8.75  L 21.2307692307692 8.75  C 21.9903846153846 8.75  22.6418269230769 9.00748697916667  23.1850961538462 9.5224609375  Z " fill-rule="nonzero" fill="#499cca" stroke="none" transform="matrix(1 0 0 1 1021 265 )" />
  </g>
</svg>