<?xml version="1.0" encoding="utf-8"?>
<!-- Generator: Adobe Illustrator 24.3.0, SVG Export Plug-In . SVG Version: 6.00 Build 0)  -->
<svg version="1.1" id="图层_1" xmlns="http://www.w3.org/2000/svg" xmlns:xlink="http://www.w3.org/1999/xlink" x="0px" y="0px"
	 viewBox="0 0 64 64" style="enable-background:new 0 0 64 64;" xml:space="preserve">
<style type="text/css">
	.st0{fill:#A8B1B9;}
</style>
<path class="st0" d="M58.9,0l0.5,0c2.4,0.2,4.3,2.2,4.6,4.6l0,0.5v53.8l0,0.5c-0.2,2.4-2.2,4.3-4.6,4.6l-0.5,0H5.1
	c-2.6,0-4.8-2-5.1-4.6l0-0.5V5.1C0,2.5,2,0.3,4.6,0l0.5,0H58.9z M57.6,3.8H6.4L6,3.9C4.9,4,4.1,4.9,3.9,6l0,0.4v51.2l0,0.4
	c0.2,1.1,1,2,2.1,2.1l0.4,0h51.2l0.4,0c1.1-0.2,2-1,2.1-2.1l0-0.4V6.4C60.2,5,59,3.8,57.6,3.8z M31.9,10.8c1.1,0,1.9,0.9,1.9,1.9
	v17.4h17.4c1.1,0,1.9,0.9,1.9,1.9c0,0.9-0.7,1.7-1.6,1.9l-0.3,0H33.8v17.2c0,0.1,0,0.1,0,0.2c0,1.1-0.9,1.9-1.9,1.9
	c-1.1,0-1.9-0.9-1.9-1.9c0,0,0,0,0,0l0-0.1l0-0.1h0V33.9H12.8c-0.1,0-0.1,0-0.2,0c-1.1,0-1.9-0.9-1.9-1.9c0-0.9,0.7-1.7,1.6-1.9
	l0.3,0l0.1,0l0.1,0v0H30V12.7c0-0.9,0.7-1.7,1.6-1.9L31.9,10.8z"/>
</svg>
